<svg width="312" height="48" viewBox="0 0 312 48" fill="none" xmlns="http://www.w3.org/2000/svg">
<rect x="0.5" y="0.5" width="311" height="47" rx="7.5" fill="#F7F9FC" stroke="#E4E9F2"/>
<path fill-rule="evenodd" clip-rule="evenodd" d="M288 25.5C287.173 25.5 286.5 24.827 286.5 24C286.5 23.173 287.173 22.5 288 22.5C288.827 22.5 289.5 23.173 289.5 24C289.5 24.827 288.827 25.5 288 25.5ZM288 20.5C286.07 20.5 284.5 22.07 284.5 24C284.5 25.93 286.07 27.5 288 27.5C289.93 27.5 291.5 25.93 291.5 24C291.5 22.07 289.93 20.5 288 20.5ZM288.22 28.9976C283.914 29.0976 281.105 25.4146 280.173 23.9956C281.199 22.3906 283.783 19.1046 287.781 19.0026C292.07 18.8936 294.895 22.5856 295.827 24.0046C294.802 25.6096 292.217 28.8956 288.22 28.9976ZM297.868 23.5026C297.23 22.3906 293.706 16.8166 287.73 17.0036C282.202 17.1436 278.987 22.0136 278.133 23.5026C277.956 23.8106 277.956 24.1896 278.133 24.4976C278.762 25.5946 282.162 30.9996 288.025 30.9996C288.107 30.9996 288.189 30.9986 288.271 30.9966C293.798 30.8556 297.014 25.9866 297.868 24.4976C298.044 24.1896 298.044 23.8106 297.868 23.5026Z" fill="#8F9BB3"/>
<path d="M17.316 29V19.06H23.112V20.292H18.618V23.302H22.272V24.534H18.618V27.768H23.112V29H17.316ZM24.7766 29V22H25.9806V23.078C26.4566 22.266 27.1986 21.86 28.2066 21.86C28.9999 21.86 29.6392 22.1167 30.1246 22.63C30.6099 23.1433 30.8526 23.8293 30.8526 24.688V29H29.6626V24.87C29.6626 24.282 29.5132 23.82 29.2146 23.484C28.9159 23.1387 28.5146 22.966 28.0106 22.966C27.4319 22.966 26.9466 23.1947 26.5546 23.652C26.1719 24.1093 25.9806 24.7347 25.9806 25.528V29H24.7766ZM35.6547 29.07C35.0107 29.07 34.4927 28.888 34.1007 28.524C33.7087 28.16 33.5127 27.628 33.5127 26.928V23.106H32.0287V22H33.5127V20.054H34.7167V22H36.7327V23.106H34.7167V26.774C34.7167 27.2127 34.81 27.5207 34.9967 27.698C35.1834 27.8753 35.4774 27.964 35.8787 27.964C36.2334 27.964 36.518 27.9173 36.7327 27.824V28.902C36.3967 29.014 36.0374 29.07 35.6547 29.07ZM41.157 29.14C40.1397 29.14 39.295 28.7947 38.623 28.104C37.9603 27.4133 37.629 26.5453 37.629 25.5C37.629 24.4453 37.951 23.5773 38.595 22.896C39.2483 22.2053 40.1117 21.86 41.185 21.86C42.2677 21.86 43.117 22.2427 43.733 23.008C44.349 23.7733 44.6197 24.7113 44.545 25.822H38.847C38.8657 26.4567 39.099 26.9887 39.547 27.418C39.995 27.838 40.5363 28.048 41.171 28.048C42.123 28.048 42.7997 27.656 43.201 26.872H44.433C44.2557 27.5253 43.8777 28.0667 43.299 28.496C42.7203 28.9253 42.0063 29.14 41.157 29.14ZM42.529 23.428C42.1463 23.092 41.6843 22.924 41.143 22.924C40.6017 22.924 40.1163 23.0873 39.687 23.414C39.267 23.7407 39.0057 24.226 38.903 24.87H43.271C43.159 24.2353 42.9117 23.7547 42.529 23.428ZM46.2824 29V22H47.4864V23.358C47.6171 22.9287 47.8691 22.5833 48.2424 22.322C48.6251 22.0607 49.0264 21.93 49.4464 21.93C49.6518 21.93 49.8338 21.9487 49.9924 21.986V23.232C49.8244 23.1573 49.6051 23.12 49.3344 23.12C48.8491 23.12 48.4198 23.33 48.0464 23.75C47.6731 24.17 47.4864 24.7627 47.4864 25.528V29H46.2824ZM55.9648 31.926H54.6208L56.1468 28.636L53.0808 22H54.4108L56.8188 27.32L59.2128 22H60.5568L55.9648 31.926ZM64.7166 29.14C63.6619 29.14 62.7846 28.79 62.0846 28.09C61.3939 27.3807 61.0486 26.5173 61.0486 25.5C61.0486 24.4827 61.3939 23.624 62.0846 22.924C62.7846 22.2147 63.6619 21.86 64.7166 21.86C65.7619 21.86 66.6299 22.2147 67.3206 22.924C68.0206 23.624 68.3706 24.4827 68.3706 25.5C68.3706 26.5173 68.0206 27.3807 67.3206 28.09C66.6299 28.79 65.7619 29.14 64.7166 29.14ZM62.9526 27.292C63.4099 27.7773 63.9979 28.02 64.7166 28.02C65.4353 28.02 66.0186 27.7773 66.4666 27.292C66.9146 26.8067 67.1386 26.2093 67.1386 25.5C67.1386 24.7907 66.9146 24.1933 66.4666 23.708C66.0186 23.2227 65.4353 22.98 64.7166 22.98C63.9979 22.98 63.4099 23.2227 62.9526 23.708C62.5046 24.1933 62.2806 24.7907 62.2806 25.5C62.2806 26.2093 62.5046 26.8067 62.9526 27.292ZM72.5768 29.14C71.8115 29.14 71.1908 28.8833 70.7148 28.37C70.2388 27.8473 70.0008 27.1567 70.0008 26.298V22H71.2048V26.116C71.2048 26.704 71.3448 27.1707 71.6248 27.516C71.9142 27.8613 72.3015 28.034 72.7868 28.034C73.3468 28.034 73.8088 27.8053 74.1728 27.348C74.5462 26.8813 74.7328 26.256 74.7328 25.472V22H75.9368V29H74.7328V27.922C74.2755 28.734 73.5568 29.14 72.5768 29.14ZM78.2063 29V22H79.4103V23.358C79.5409 22.9287 79.7929 22.5833 80.1663 22.322C80.5489 22.0607 80.9503 21.93 81.3703 21.93C81.5756 21.93 81.7576 21.9487 81.9163 21.986V23.232C81.7483 23.1573 81.5289 23.12 81.2583 23.12C80.7729 23.12 80.3436 23.33 79.9703 23.75C79.5969 24.17 79.4103 24.7627 79.4103 25.528V29H78.2063ZM87.5587 31.926H86.3547V22H87.5587V23.078C87.8014 22.7233 88.142 22.434 88.5807 22.21C89.0287 21.9767 89.5094 21.86 90.0227 21.86C90.9934 21.86 91.8054 22.2147 92.4587 22.924C93.1214 23.6333 93.4527 24.492 93.4527 25.5C93.4527 26.508 93.1214 27.3667 92.4587 28.076C91.8054 28.7853 90.9934 29.14 90.0227 29.14C89.5094 29.14 89.0287 29.028 88.5807 28.804C88.142 28.5707 87.8014 28.2767 87.5587 27.922V31.926ZM88.1327 27.306C88.5807 27.7913 89.15 28.034 89.8407 28.034C90.5314 28.034 91.1007 27.7913 91.5487 27.306C91.9967 26.8207 92.2207 26.2187 92.2207 25.5C92.2207 24.7813 91.9967 24.1793 91.5487 23.694C91.1007 23.2087 90.5314 22.966 89.8407 22.966C89.15 22.966 88.5807 23.2087 88.1327 23.694C87.6847 24.1793 87.4607 24.7813 87.4607 25.5C87.4607 26.2187 87.6847 26.8207 88.1327 27.306ZM98.0707 29.14C97.1001 29.14 96.2834 28.7853 95.6207 28.076C94.9674 27.3667 94.6407 26.508 94.6407 25.5C94.6407 24.492 94.9674 23.6333 95.6207 22.924C96.2834 22.2147 97.1001 21.86 98.0707 21.86C98.5841 21.86 99.0601 21.9767 99.4987 22.21C99.9467 22.434 100.292 22.7233 100.535 23.078V22H101.739V29H100.535V27.922C100.292 28.2767 99.9467 28.5707 99.4987 28.804C99.0601 29.028 98.5841 29.14 98.0707 29.14ZM98.2527 28.034C98.9434 28.034 99.5127 27.7913 99.9607 27.306C100.409 26.8207 100.633 26.2187 100.633 25.5C100.633 24.7813 100.409 24.1793 99.9607 23.694C99.5127 23.2087 98.9434 22.966 98.2527 22.966C97.5527 22.966 96.9787 23.2087 96.5307 23.694C96.0827 24.1793 95.8587 24.7813 95.8587 25.5C95.8587 26.2187 96.0827 26.8207 96.5307 27.306C96.9787 27.7913 97.5527 28.034 98.2527 28.034ZM106.259 29.14C105.475 29.14 104.817 28.9487 104.285 28.566C103.762 28.1833 103.473 27.6513 103.417 26.97H104.649C104.724 27.362 104.91 27.6513 105.209 27.838C105.517 28.0247 105.872 28.118 106.273 28.118C106.674 28.118 106.996 28.0387 107.239 27.88C107.491 27.7213 107.617 27.4927 107.617 27.194C107.617 26.914 107.524 26.6853 107.337 26.508C107.16 26.3307 106.866 26.186 106.455 26.074L105.447 25.808C104.243 25.4907 103.641 24.8047 103.641 23.75C103.641 23.1807 103.865 22.7233 104.313 22.378C104.77 22.0327 105.354 21.86 106.063 21.86C106.782 21.86 107.37 22.0513 107.827 22.434C108.294 22.8073 108.555 23.2833 108.611 23.862H107.407C107.314 23.554 107.146 23.3113 106.903 23.134C106.67 22.9567 106.39 22.868 106.063 22.868C105.718 22.868 105.428 22.9473 105.195 23.106C104.971 23.2647 104.859 23.4747 104.859 23.736C104.859 23.988 104.943 24.1933 105.111 24.352C105.279 24.5107 105.55 24.6413 105.923 24.744L107.043 25.038C108.238 25.3367 108.835 26.0273 108.835 27.11C108.835 27.782 108.597 28.2907 108.121 28.636C107.645 28.972 107.024 29.14 106.259 29.14ZM112.794 29.14C112.01 29.14 111.352 28.9487 110.82 28.566C110.298 28.1833 110.008 27.6513 109.952 26.97H111.184C111.259 27.362 111.446 27.6513 111.744 27.838C112.052 28.0247 112.407 28.118 112.808 28.118C113.21 28.118 113.532 28.0387 113.774 27.88C114.026 27.7213 114.152 27.4927 114.152 27.194C114.152 26.914 114.059 26.6853 113.872 26.508C113.695 26.3307 113.401 26.186 112.99 26.074L111.982 25.808C110.778 25.4907 110.176 24.8047 110.176 23.75C110.176 23.1807 110.4 22.7233 110.848 22.378C111.306 22.0327 111.889 21.86 112.598 21.86C113.317 21.86 113.905 22.0513 114.362 22.434C114.829 22.8073 115.09 23.2833 115.146 23.862H113.942C113.849 23.554 113.681 23.3113 113.438 23.134C113.205 22.9567 112.925 22.868 112.598 22.868C112.253 22.868 111.964 22.9473 111.73 23.106C111.506 23.2647 111.394 23.4747 111.394 23.736C111.394 23.988 111.478 24.1933 111.646 24.352C111.814 24.5107 112.085 24.6413 112.458 24.744L113.578 25.038C114.773 25.3367 115.37 26.0273 115.37 27.11C115.37 27.782 115.132 28.2907 114.656 28.636C114.18 28.972 113.56 29.14 112.794 29.14ZM122.984 29L121.248 23.974L119.526 29H118.462L116.082 22H117.342L119.036 27.11L120.786 22H121.71L123.46 27.11L125.154 22H126.428L124.048 29H122.984ZM130.806 29.14C129.752 29.14 128.874 28.79 128.174 28.09C127.484 27.3807 127.138 26.5173 127.138 25.5C127.138 24.4827 127.484 23.624 128.174 22.924C128.874 22.2147 129.752 21.86 130.806 21.86C131.852 21.86 132.72 22.2147 133.41 22.924C134.11 23.624 134.46 24.4827 134.46 25.5C134.46 26.5173 134.11 27.3807 133.41 28.09C132.72 28.79 131.852 29.14 130.806 29.14ZM129.042 27.292C129.5 27.7773 130.088 28.02 130.806 28.02C131.525 28.02 132.108 27.7773 132.556 27.292C133.004 26.8067 133.228 26.2093 133.228 25.5C133.228 24.7907 133.004 24.1933 132.556 23.708C132.108 23.2227 131.525 22.98 130.806 22.98C130.088 22.98 129.5 23.2227 129.042 23.708C128.594 24.1933 128.37 24.7907 128.37 25.5C128.37 26.2093 128.594 26.8067 129.042 27.292ZM136.189 29V22H137.393V23.358C137.523 22.9287 137.775 22.5833 138.149 22.322C138.531 22.0607 138.933 21.93 139.353 21.93C139.558 21.93 139.74 21.9487 139.899 21.986V23.232C139.731 23.1573 139.511 23.12 139.241 23.12C138.755 23.12 138.326 23.33 137.953 23.75C137.579 24.17 137.393 24.7627 137.393 25.528V29H136.189ZM143.967 29.14C142.997 29.14 142.18 28.7853 141.517 28.076C140.864 27.3667 140.537 26.508 140.537 25.5C140.537 24.492 140.864 23.6333 141.517 22.924C142.18 22.2147 142.997 21.86 143.967 21.86C144.481 21.86 144.957 21.9767 145.395 22.21C145.843 22.434 146.189 22.7233 146.431 23.078V18.5H147.635V29H146.431V27.922C146.189 28.2767 145.843 28.5707 145.395 28.804C144.957 29.028 144.481 29.14 143.967 29.14ZM144.149 28.034C144.84 28.034 145.409 27.7913 145.857 27.306C146.305 26.8207 146.529 26.2187 146.529 25.5C146.529 24.7813 146.305 24.1793 145.857 23.694C145.409 23.2087 144.84 22.966 144.149 22.966C143.449 22.966 142.875 23.2087 142.427 23.694C141.979 24.1793 141.755 24.7813 141.755 25.5C141.755 26.2187 141.979 26.8207 142.427 27.306C142.875 27.7913 143.449 28.034 144.149 28.034Z" fill="#8F9BB3"/>
</svg>
