<svg width="64" height="56" viewBox="0 0 64 56" fill="none" xmlns="http://www.w3.org/2000/svg">
<circle cx="28" cy="28" r="28" fill="#FFD339"/>
<path d="M55.6667 11.6667H32.3333C30.4924 11.6667 29 13.1591 29 15.0001V30.0001C29 31.841 30.4924 33.3334 32.3333 33.3334H55.6667C57.5076 33.3334 59 31.841 59 30.0001V15.0001C59 13.1591 57.5076 11.6667 55.6667 11.6667Z" stroke="#222B45" stroke-width="2" stroke-linecap="round" stroke-linejoin="round"/>
<path d="M37.3333 11.6667V8.33333C37.3333 7.44928 37.6845 6.60143 38.3097 5.97631C38.9348 5.35119 39.7826 5 40.6667 5H47.3333C48.2174 5 49.0652 5.35119 49.6904 5.97631C50.3155 6.60143 50.6667 7.44928 50.6667 8.33333V11.6667" stroke="#222B45" stroke-width="2" stroke-linecap="round" stroke-linejoin="round"/>
<path d="M44 20V20.0167" stroke="#222B45" stroke-width="2" stroke-linecap="round" stroke-linejoin="round"/>
<path d="M29 21.6667C33.6526 24.0112 38.79 25.2325 44 25.2325C49.21 25.2325 54.3474 24.0112 59 21.6667" stroke="#222B45" stroke-width="2" stroke-linecap="round" stroke-linejoin="round"/>
</svg>
