<svg width="360" height="73" viewBox="0 0 360 73" fill="none" xmlns="http://www.w3.org/2000/svg">
<rect y="72" width="360" height="1" fill="#E4E9F2"/>
<rect width="360" height="72" fill="white"/>
<path d="M56 30.2322V18.6072H58.5645V30.0513C58.5645 31.1032 59.0768 31.6693 60.1029 31.6693C60.4524 31.6693 60.821 31.5686 61.0269 31.4665L61.1497 33.4886C60.6567 33.671 60.1236 33.7512 59.6113 33.7512C57.3326 33.7498 56 32.4761 56 30.2322Z" fill="#222B45"/>
<path d="M62.5445 19.5159C62.5445 18.6667 63.2419 18 64.1866 18C65.1312 18 65.8286 18.6274 65.8286 19.456C65.8286 20.346 65.1519 21.0332 64.1866 21.0332C63.2419 21.0332 62.5445 20.3664 62.5445 19.5159ZM62.8939 22.8117H65.4584V33.608H62.8939V22.8117Z" fill="#222B45"/>
<path d="M79.6151 27.4219V33.6079H77.0506V27.7443C77.0506 25.8228 76.0867 24.8935 74.4447 24.8935C72.619 24.8935 71.3871 25.9848 71.3871 28.1484V33.6079H68.8226V22.8115H71.2642V24.2063C72.1052 23.2157 73.4393 22.6904 75.0399 22.6904C77.6666 22.6904 79.6151 24.1669 79.6151 27.4219Z" fill="#222B45"/>
<path d="M87.3501 28.979L85.4415 30.7574V33.6082H82.877V18.6072H85.4415V27.6644L90.7556 22.8119H93.8339L89.2587 27.3405L94.2648 33.6082H91.1465L87.3501 28.979Z" fill="#222B45"/>
<path d="M67.6336 44.6802C67.6336 48.0358 65.2734 50.2198 62.0737 50.2198C60.6789 50.2198 59.447 49.7544 58.5645 48.7638V54H56V39.282H58.4416V40.6972C59.3034 39.6657 60.5753 39.1609 62.0737 39.1609C65.2734 39.1609 67.6336 41.345 67.6336 44.6802ZM65.0276 44.6802C65.0276 42.6186 63.6328 41.3041 61.785 41.3041C59.9371 41.3041 58.5231 42.6186 58.5231 44.6802C58.5231 46.7431 59.9386 48.0562 61.785 48.0562C63.6313 48.0562 65.0276 46.7431 65.0276 44.6802Z" fill="#222B45"/>
<path d="M80.7849 39.282V50.0783H78.3432V48.6835C77.4815 49.715 76.2096 50.2198 74.7112 50.2198C71.51 50.2198 69.1705 48.0358 69.1705 44.6802C69.1705 41.3245 71.51 39.1609 74.7112 39.1609C76.106 39.1609 77.3379 39.6263 78.2203 40.5965V39.282H80.7849ZM78.2618 44.6802C78.2618 42.6186 76.867 41.3041 74.9999 41.3041C73.1535 41.3041 71.7573 42.6186 71.7573 44.6802C71.7573 46.7431 73.152 48.0562 74.9999 48.0562C76.8655 48.0577 78.2618 46.7431 78.2618 44.6802Z" fill="#222B45"/>
<path d="M90.4906 39.1609V41.5667C90.2655 41.5259 90.0805 41.5054 89.8954 41.5054C87.9453 41.5054 86.7149 42.6376 86.7149 44.8421V50.0783H84.1504V39.282H86.592V40.8591C87.3309 39.727 88.6635 39.1609 90.4906 39.1609Z" fill="#222B45"/>
<path d="M98.8208 49.4932C98.2048 49.979 97.2824 50.2212 96.3585 50.2212C93.9583 50.2212 92.5828 48.968 92.5828 46.5826V36.8979H95.1473V39.3651H98.0819V41.3872H95.1473V46.5227C95.1473 47.5746 95.701 48.1407 96.665 48.1407C97.198 48.1407 97.7118 47.9992 98.1012 47.6957L98.8208 49.4932Z" fill="#222B45"/>
<path d="M111.726 43.8923V50.0783H109.162V44.2147C109.162 42.2933 108.198 41.3639 106.556 41.3639C104.73 41.3639 103.498 42.4552 103.498 44.6189V50.0783H100.934V39.282H103.375V40.6768C104.216 39.6861 105.55 39.1609 107.151 39.1609C109.778 39.1609 111.726 40.6374 111.726 43.8923Z" fill="#222B45"/>
<path d="M123.278 46.9051L124.633 48.4618C123.669 49.6144 122.129 50.2213 120.241 50.2213C116.568 50.2213 114.189 47.8957 114.189 44.6816C114.189 41.4675 116.568 39.1624 119.831 39.1624C122.889 39.1624 125.351 41.1845 125.372 44.5605L116.98 46.1785C117.513 47.4113 118.703 48.0795 120.304 48.0795C121.534 48.0781 122.477 47.6929 123.278 46.9051ZM116.67 44.5386V44.5591L122.867 43.3861C122.517 42.0715 121.368 41.183 119.83 41.183C117.964 41.183 116.67 42.4771 116.67 44.5386Z" fill="#222B45"/>
<path d="M134.173 39.1609V41.5667C133.948 41.5259 133.763 41.5054 133.578 41.5054C131.628 41.5054 130.397 42.6376 130.397 44.8421V50.0783H127.833V39.282H130.275V40.8591C131.013 39.727 132.347 39.1609 134.173 39.1609Z" fill="#222B45"/>
<path d="M135.137 49.0074L136.122 47.086C137.086 47.7133 138.563 48.1569 139.937 48.1569C141.559 48.1569 142.235 47.7119 142.235 46.9634C142.235 44.9004 135.464 46.8423 135.464 42.5355C135.464 40.4929 137.331 39.1594 140.287 39.1594C141.744 39.1594 143.405 39.5037 144.39 40.0902L143.405 42.0102C142.358 41.4033 141.313 41.202 140.266 41.202C138.707 41.202 137.968 41.7068 137.968 42.4144C137.968 44.5984 144.739 42.6566 144.739 46.8832C144.739 48.9053 142.851 50.2198 139.773 50.2198C137.949 50.2198 136.122 49.6946 135.137 49.0074Z" fill="#222B45"/>
<path d="M110.417 33.5875H117.04C120.089 33.5875 122.559 31.1525 122.559 28.1499H120.131C120.131 29.8292 118.745 31.1948 117.04 31.1948H110.417C108.713 31.1948 107.327 29.8292 107.327 28.1499H104.899C104.898 31.1525 107.369 33.5875 110.417 33.5875Z" fill="#FCBA00"/>
<path d="M110.417 25.1036C112.122 25.1036 113.508 26.4692 113.508 28.1485C113.508 29.8278 112.122 31.1934 110.417 31.1934H103.794C102.09 31.1934 100.704 29.8278 100.704 28.1485C100.704 26.4692 102.09 25.1036 103.794 25.1036H110.417ZM110.417 22.7109H103.794C100.746 22.7109 98.2759 25.1459 98.2759 28.1485C98.2759 31.1525 100.747 33.5861 103.794 33.5861H110.417C113.466 33.5861 115.936 31.151 115.936 28.1485C115.936 25.1459 113.465 22.7109 110.417 22.7109Z" fill="#222B45"/>
<path d="M110.417 25.1036H117.04C118.745 25.1036 120.131 26.4692 120.131 28.1485H122.559C122.559 25.1445 120.088 22.7109 117.04 22.7109H110.417C107.369 22.7109 104.899 25.1459 104.899 28.1485H107.327C107.326 26.4707 108.713 25.1036 110.417 25.1036Z" fill="#FCBA00"/>
<path d="M264 24C264 19.5817 267.582 16 272 16H336C340.418 16 344 19.5817 344 24V48C344 52.4183 340.418 56 336 56H272C267.582 56 264 52.4183 264 48V24Z" fill="#FFD339"/>
<path d="M293.503 41.168C292.635 41.168 291.907 40.916 291.319 40.412C290.741 39.8987 290.451 39.1753 290.451 38.242H292.075C292.075 38.6807 292.215 39.026 292.495 39.278C292.775 39.5207 293.111 39.642 293.503 39.642C293.905 39.642 294.236 39.516 294.497 39.264C294.768 39.012 294.903 38.634 294.903 38.13V31.06H296.541V38.27C296.541 39.2407 296.252 39.9687 295.673 40.454C295.104 40.93 294.381 41.168 293.503 41.168ZM304.344 40.09C303.644 40.79 302.776 41.14 301.74 41.14C300.704 41.14 299.831 40.79 299.122 40.09C298.422 39.3807 298.072 38.5173 298.072 37.5C298.072 36.4827 298.422 35.624 299.122 34.924C299.831 34.2147 300.704 33.86 301.74 33.86C302.776 33.86 303.644 34.2147 304.344 34.924C305.053 35.624 305.408 36.4827 305.408 37.5C305.408 38.5173 305.053 39.3807 304.344 40.09ZM301.74 39.712C302.347 39.712 302.846 39.502 303.238 39.082C303.639 38.6527 303.84 38.1253 303.84 37.5C303.84 36.8747 303.639 36.352 303.238 35.932C302.846 35.5027 302.347 35.288 301.74 35.288C301.124 35.288 300.615 35.5027 300.214 35.932C299.822 36.352 299.626 36.8747 299.626 37.5C299.626 38.1253 299.822 38.6527 300.214 39.082C300.615 39.502 301.124 39.712 301.74 39.712ZM307.727 32.474C307.447 32.474 307.204 32.376 306.999 32.18C306.794 31.9747 306.691 31.7273 306.691 31.438C306.691 31.158 306.794 30.92 306.999 30.724C307.204 30.5187 307.447 30.416 307.727 30.416C308.016 30.416 308.259 30.5187 308.455 30.724C308.651 30.92 308.749 31.158 308.749 31.438C308.749 31.7273 308.651 31.9747 308.455 32.18C308.259 32.376 308.016 32.474 307.727 32.474ZM306.957 41V34H308.497V41H306.957ZM310.566 41V34H312.106V34.952C312.545 34.224 313.254 33.86 314.234 33.86C315.046 33.86 315.695 34.126 316.18 34.658C316.666 35.19 316.908 35.8993 316.908 36.786V41H315.368V37.038C315.368 36.478 315.238 36.044 314.976 35.736C314.715 35.4187 314.36 35.26 313.912 35.26C313.38 35.26 312.946 35.4607 312.61 35.862C312.274 36.2633 312.106 36.828 312.106 37.556V41H310.566Z" fill="#222B45"/>
<path fill-rule="evenodd" clip-rule="evenodd" d="M19.9483 30H36.0513C36.5733 30 37.0003 30.427 37.0003 30.949V31.051C37.0003 31.573 36.5733 32 36.0513 32H19.9483C19.4263 32 19.0003 31.573 19.0003 31.051V30.949C19.0003 30.427 19.4263 30 19.9483 30ZM36.0513 35H19.9483C19.4263 35 19.0003 35.427 19.0003 35.949V36.051C19.0003 36.573 19.4263 37 19.9483 37H36.0513C36.5733 37 37.0003 36.573 37.0003 36.051V35.949C37.0003 35.427 36.5733 35 36.0513 35ZM36.0513 40H19.9483C19.4263 40 19.0003 40.427 19.0003 40.949V41.051C19.0003 41.573 19.4263 42 19.9483 42H36.0513C36.5733 42 37.0003 41.573 37.0003 41.051V40.949C37.0003 40.427 36.5733 40 36.0513 40Z" fill="#2E3A59"/>
</svg>
