<svg width="56" height="56" viewBox="0 0 56 56" fill="none" xmlns="http://www.w3.org/2000/svg">
<circle cx="28" cy="28" r="28" fill="#F7F9FC"/>
<path fill-rule="evenodd" clip-rule="evenodd" d="M35 27H23.135L26.768 22.64C27.122 22.216 27.064 21.585 26.64 21.232C26.215 20.878 25.585 20.936 25.232 21.36L20.232 27.36C20.193 27.407 20.173 27.462 20.144 27.514C20.12 27.556 20.091 27.592 20.073 27.638C20.028 27.753 20.001 27.874 20.001 27.996C20.001 27.997 20 27.999 20 28C20 28.001 20.001 28.003 20.001 28.004C20.001 28.126 20.028 28.247 20.073 28.362C20.091 28.408 20.12 28.444 20.144 28.486C20.173 28.538 20.193 28.593 20.232 28.64L25.232 34.64C25.43 34.877 25.714 35 26 35C26.226 35 26.453 34.924 26.64 34.768C27.064 34.415 27.122 33.784 26.768 33.36L23.135 29H35C35.552 29 36 28.552 36 28C36 27.448 35.552 27 35 27Z" fill="#2E3A59"/>
</svg>
