<svg width="1440" height="376" viewBox="0 0 1440 376" fill="none" xmlns="http://www.w3.org/2000/svg">
<mask id="mask0_94_393" style="mask-type:alpha" maskUnits="userSpaceOnUse" x="0" y="0" width="1440" height="376">
<rect width="1440" height="376" fill="#EDF1F7"/>
</mask>
<g mask="url(#mask0_94_393)">
<path d="M-225 -170.712C-54.3245 -170.882 114.914 -105.931 224.81 1.88965C320.168 95.4317 369.243 214.886 451.008 316.806C532.773 418.725 670.882 508.096 816.507 485.711C916.423 470.346 995.847 404.514 1042.83 330.067C1089.81 255.62 1110.18 172.117 1135.31 90.7852C1160.44 9.45306 1192.35 -73.1 1257.53 -137.542C1340.07 -219.247 1474.08 -263.338 1602 -250.925" stroke="#FFF2AF" stroke-miterlimit="10"/>
<path d="M-167.834 -175.833C-87.5857 -175.442 -8.38132 -160.774 64.3853 -132.827C137.152 -104.88 201.772 -64.3104 253.844 -13.8809C343.207 73.7936 389.366 185.786 465.874 281.194C542.383 376.601 671.991 460.511 808.416 439.551C902.091 425.136 976.546 363.442 1020.57 293.709C1064.59 223.977 1083.69 145.527 1107.3 69.2827C1130.92 -6.96189 1160.69 -84.3596 1221.88 -144.765C1299.25 -221.349 1424.88 -262.693 1545 -251.06" stroke="#FFF2AF" stroke-miterlimit="10"/>
<path d="M-110.669 -180.988C-35.7857 -180.653 38.1301 -166.991 106.043 -140.934C173.956 -114.877 234.271 -77.0371 282.879 -29.9912C366.245 51.8157 409.202 156.313 480.741 245.48C552.28 334.647 673.1 412.824 800.408 393.221C887.841 379.654 957.285 322.199 998.394 257.113C1039.5 192.027 1057.33 118.903 1079.34 47.7796C1101.35 -23.3436 1129.27 -95.6199 1186.11 -151.989C1222.74 -187.58 1269.35 -215.234 1321.88 -232.542C1374.41 -249.851 1431.27 -256.29 1487.5 -251.297" stroke="#FFF2AF" stroke-miterlimit="10"/>
<path d="M-53.5031 -186.144C16.0373 -185.839 84.6814 -173.16 147.754 -148.97C210.826 -124.78 266.845 -89.6478 311.995 -45.9661C389.448 30.0072 429.325 127.009 495.73 209.833C562.136 292.658 674.332 365.171 792.523 346.992C873.672 334.511 938.189 281.058 976.34 220.619C1014.49 160.179 1031.04 92.3121 1051.49 26.2425C1071.94 -39.8271 1097.74 -106.88 1150.75 -159.214C1184.77 -192.218 1228.03 -217.86 1276.78 -233.908C1325.53 -249.957 1378.28 -255.926 1430.46 -251.297" stroke="#FFF2AF" stroke-miterlimit="10"/>
<path d="M3.70355 -191.299C67.8661 -191.006 131.199 -179.297 189.388 -156.969C247.578 -134.64 299.257 -102.217 340.907 -61.9068C412.364 8.19894 449.16 97.7728 510.473 174.153C571.787 250.533 675.317 317.553 784.392 300.764C859.299 289.266 918.846 239.917 954.082 184.125C989.318 128.332 1004.55 65.6876 1023.44 4.73943C1042.34 -56.2088 1066.24 -118.141 1115.02 -166.506C1146.45 -196.945 1186.41 -220.581 1231.43 -235.359C1276.44 -250.136 1325.14 -255.608 1373.3 -251.297" stroke="#FFF2AF" stroke-miterlimit="10"/>
</g>
</svg>
