<svg width="1368" height="508" viewBox="0 0 1368 508" fill="none" xmlns="http://www.w3.org/2000/svg">
<mask id="mask0_94_391" style="mask-type:alpha" maskUnits="userSpaceOnUse" x="0" y="0" width="1368" height="508">
<rect width="1368" height="508" fill="#EDF1F7"/>
</mask>
<g mask="url(#mask0_94_391)">
<path d="M-302 -90.7122C-131.324 -90.8818 37.9136 -25.9314 147.81 81.8896C243.168 175.432 292.243 294.886 374.008 396.806C455.773 498.725 593.882 588.095 739.507 565.71C839.423 550.346 918.847 484.514 965.828 410.067C1012.81 335.62 1033.18 252.117 1058.31 170.785C1083.44 89.453 1115.35 6.89992 1180.53 -57.5417C1263.07 -139.247 1397.08 -183.339 1525 -170.925" stroke="#E4E9F2" stroke-miterlimit="10"/>
<path d="M-244.834 -95.8328C-164.586 -95.4424 -85.3813 -80.7742 -12.6147 -52.8271C60.1519 -24.88 124.772 15.6896 176.844 66.1191C266.207 153.794 312.366 265.786 388.874 361.194C465.383 456.601 594.991 540.511 731.416 519.551C825.091 505.136 899.546 443.442 943.57 373.709C987.594 303.977 1006.69 225.527 1030.3 149.283C1053.92 73.0381 1083.69 -4.35964 1144.88 -64.7652C1222.25 -141.349 1347.88 -182.693 1468 -171.06" stroke="#E4E9F2" stroke-miterlimit="10"/>
<path d="M-187.669 -100.988C-112.786 -100.653 -38.8699 -86.9914 29.0433 -60.9344C96.9565 -34.8773 157.271 2.963 205.879 50.0088C289.245 131.816 332.202 236.313 403.741 325.48C475.28 414.647 596.1 492.824 723.408 473.221C810.841 459.654 880.285 402.199 921.394 337.113C962.502 272.027 980.325 198.903 1002.34 127.78C1024.35 56.6565 1052.27 -15.6199 1109.11 -71.9893C1145.74 -107.58 1192.35 -135.234 1244.88 -152.542C1297.41 -169.851 1354.27 -176.29 1410.5 -171.297" stroke="#E4E9F2" stroke-miterlimit="10"/>
<path d="M-130.503 -106.144C-60.9627 -105.839 7.68144 -93.1596 70.7538 -68.9698C133.826 -44.78 189.845 -9.64782 234.995 34.0339C312.448 110.007 352.325 207.009 418.73 289.833C485.136 372.658 597.332 445.171 715.523 426.992C796.672 414.511 861.189 361.058 899.34 300.619C937.492 240.179 954.042 172.312 974.493 106.242C994.945 40.1729 1020.74 -26.8804 1073.75 -79.2137C1107.77 -112.218 1151.03 -137.86 1199.78 -153.908C1248.53 -169.957 1301.28 -175.926 1353.46 -171.297" stroke="#E4E9F2" stroke-miterlimit="10"/>
<path d="M-73.2964 -111.299C-9.13386 -111.006 54.1989 -99.2973 112.388 -76.9688C170.578 -54.6403 222.257 -22.2169 263.907 18.0932C335.364 88.1989 372.16 177.773 433.473 254.153C494.787 330.533 598.317 397.553 707.392 380.764C782.299 369.266 841.846 319.917 877.082 264.125C912.318 208.332 927.554 145.688 946.444 84.7394C965.335 23.7912 989.237 -38.1406 1038.02 -86.5057C1069.45 -116.945 1109.41 -140.581 1154.43 -155.359C1199.44 -170.136 1248.14 -175.608 1296.3 -171.297" stroke="#E4E9F2" stroke-miterlimit="10"/>
</g>
</svg>
