<svg width="64" height="56" viewBox="0 0 64 56" fill="none" xmlns="http://www.w3.org/2000/svg">
<circle cx="28" cy="28" r="28" fill="#FFD339"/>
<path d="M55.6667 14.5166L46.7783 7.60327C45.9983 6.99645 45.0383 6.66699 44.05 6.66699C43.0617 6.66699 42.1017 6.99645 41.3217 7.60327L32.4317 14.5166C31.8974 14.9321 31.4652 15.4642 31.1679 16.0722C30.8707 16.6802 30.7164 17.3481 30.7167 18.0249V30.0249C30.7167 30.909 31.0679 31.7568 31.693 32.382C32.3181 33.0071 33.166 33.3583 34.05 33.3583H54.05C54.9341 33.3583 55.7819 33.0071 56.407 32.382C57.0322 31.7568 57.3833 30.909 57.3833 30.0249V18.0249C57.3833 16.6533 56.75 15.3583 55.6667 14.5166Z" stroke="#222B45" stroke-width="2" stroke-linecap="round" stroke-linejoin="round"/>
<path d="M50.6667 25C46.9833 27.2217 41.0133 27.2217 37.3333 25" stroke="#222B45" stroke-width="2" stroke-linecap="round" stroke-linejoin="round"/>
</svg>
