<svg width="56" height="56" viewBox="0 0 56 56" fill="none" xmlns="http://www.w3.org/2000/svg">
<circle cx="28" cy="28" r="28" fill="#F7F9FC"/>
<path fill-rule="evenodd" clip-rule="evenodd" d="M21 29H32.865L29.232 33.36C28.878 33.784 28.936 34.415 29.36 34.768C29.785 35.122 30.415 35.064 30.769 34.64L35.769 28.64C35.808 28.593 35.827 28.538 35.856 28.486C35.88 28.444 35.909 28.408 35.927 28.362C35.972 28.247 35.999 28.126 35.999 28.004C35.999 28.003 36 28.001 36 28C36 27.999 35.999 27.997 35.999 27.996C35.999 27.874 35.972 27.753 35.927 27.638C35.909 27.592 35.88 27.556 35.856 27.514C35.827 27.462 35.808 27.407 35.769 27.36L30.769 21.36C30.57 21.123 30.286 21 30 21C29.774 21 29.547 21.076 29.36 21.232C28.936 21.585 28.878 22.216 29.232 22.64L32.865 27H21C20.448 27 20 27.448 20 28C20 28.552 20.448 29 21 29Z" fill="#2E3A59"/>
</svg>
