<svg width="20" height="18" viewBox="0 0 20 18" fill="none" xmlns="http://www.w3.org/2000/svg">
<path fill-rule="evenodd" clip-rule="evenodd" d="M14.3818 11H6.7638L5.1268 5H17.3818L14.3818 11ZM19.0828 3.948C18.7158 3.354 18.0798 3 17.3818 3H4.5818L3.9648 0.737C3.8458 0.302 3.4508 0 2.9998 0H0.999802C0.446802 0 -0.000198364 0.448 -0.000198364 1C-0.000198364 1.552 0.446802 2 0.999802 2H2.2358L5.0348 12.263C5.1538 12.698 5.5488 13 5.9998 13H14.9998C15.3788 13 15.7248 12.786 15.8948 12.447L19.1708 5.894C19.4838 5.269 19.4498 4.542 19.0828 3.948ZM5.5 15C4.672 15 4 15.671 4 16.5C4 17.329 4.672 18 5.5 18C6.328 18 7 17.329 7 16.5C7 15.671 6.328 15 5.5 15ZM14 16.5C14 15.671 14.672 15 15.5 15C16.328 15 17 15.671 17 16.5C17 17.329 16.328 18 15.5 18C14.672 18 14 17.329 14 16.5Z" fill="#FFF2AF"/>
</svg>
