<svg width="592" height="176" viewBox="0 0 592 176" fill="none" xmlns="http://www.w3.org/2000/svg">
<mask id="mask0_250_2586" style="mask-type:alpha" maskUnits="userSpaceOnUse" x="0" y="0" width="592" height="176">
<rect width="592" height="176" fill="#EDF1F7"/>
</mask>
<g mask="url(#mask0_250_2586)">
<path d="M-13.0034 -0.55337C50.1478 -0.616117 112.767 23.416 153.429 63.3105C188.713 97.9218 206.871 142.121 237.125 179.832C267.378 217.543 318.48 250.61 372.362 242.328C409.332 236.643 438.719 212.285 456.102 184.739C473.486 157.193 481.022 126.296 490.322 96.2025C499.621 66.1091 511.428 35.5638 535.543 11.7199C566.085 -18.5116 615.667 -34.8258 663 -30.2327" stroke="white" stroke-opacity="0.24" stroke-miterlimit="10"/>
<path d="M8.14795 -2.44757C37.8405 -2.30311 67.1467 3.12423 94.0709 13.4649C120.995 23.8055 144.905 38.8165 164.172 57.4758C197.237 89.916 214.316 131.354 242.625 166.656C270.933 201.957 318.889 233.004 369.368 225.249C404.028 219.915 431.577 197.088 447.866 171.286C464.155 145.485 471.221 116.458 479.958 88.247C488.696 60.0359 499.712 31.3982 522.353 9.04768C550.981 -19.2889 597.463 -34.5866 641.909 -30.2822" stroke="white" stroke-opacity="0.24" stroke-miterlimit="10"/>
<path d="M29.3003 -4.35585C57.0076 -4.23182 84.357 0.823023 109.485 10.4643C134.614 20.1056 156.931 34.1068 174.916 51.5141C205.762 81.7833 221.656 120.448 248.126 153.44C274.596 186.433 319.3 215.359 366.405 208.106C398.756 203.086 424.451 181.827 439.661 157.745C454.872 133.662 461.466 106.606 469.611 80.2899C477.756 53.9738 488.088 27.231 509.119 6.37389C522.672 -6.79476 539.918 -17.0269 559.354 -23.4313C578.791 -29.8357 599.829 -32.218 620.636 -30.3708" stroke="white" stroke-opacity="0.24" stroke-miterlimit="10"/>
<path d="M50.4512 -6.26267C76.1816 -6.14986 101.58 -1.4585 124.918 7.4919C148.255 16.4423 168.982 29.4415 185.688 45.604C214.346 73.7147 229.101 109.606 253.672 140.252C278.242 170.897 319.755 197.728 363.487 191.001C393.513 186.383 417.384 166.605 431.501 144.242C445.617 121.879 451.741 96.768 459.308 72.3217C466.875 47.8755 476.418 23.0653 496.035 3.70156C508.62 -8.51033 524.628 -17.9979 542.665 -23.936C560.702 -29.874 580.223 -32.0828 599.529 -30.3701" stroke="white" stroke-opacity="0.24" stroke-miterlimit="10"/>
<path d="M71.6187 -8.17003C95.3593 -8.06187 118.793 -3.72939 140.323 4.53233C161.854 12.794 180.976 24.7909 196.386 39.7059C222.826 65.6456 236.441 98.7886 259.127 127.05C281.814 155.311 320.121 180.109 360.479 173.897C388.195 169.643 410.228 151.383 423.266 130.739C436.303 110.096 441.941 86.9168 448.93 64.3655C455.92 41.8142 464.764 18.899 482.816 1.00359C494.445 -10.2591 509.23 -19.0046 525.885 -24.4725C542.54 -29.9403 560.56 -31.9648 578.378 -30.3699" stroke="white" stroke-opacity="0.24" stroke-miterlimit="10"/>
</g>
</svg>
