<?xml version="1.0" encoding="utf-8" standalone="yes"?><svg xmlns="http://www.w3.org/2000/svg" xmlns:xlink="http://www.w3.org/1999/xlink" version="1.1" width="100%" height="100%" viewBox="0 0 816 1056"><!--Generated by Aspose.Words for .NET 18.5--><defs><clipPath id="clip1"><path d="M0,0 L612,0 L612,0.096000001 L0,0.096000001 Z" clip-rule="evenodd"></path></clipPath><clipPath id="clip10"><path d="M-1,-1 L118,-1 L118,272.5 L-1,272.5 Z" clip-rule="evenodd"></path></clipPath><clipPath id="clip11"><path d="M-1,-1 L436,-1 L436,272.5 L-1,272.5 Z" clip-rule="evenodd"></path></clipPath><clipPath id="clip12"><path d="M-1,-1 L118,-1 L118,37.5 L-1,37.5 Z" clip-rule="evenodd"></path></clipPath><clipPath id="clip13"><path d="M-1,-1 L436,-1 L436,37.5 L-1,37.5 Z" clip-rule="evenodd"></path></clipPath><clipPath id="clip2"><path d="M0,0 L612,0 L612,0.096000001 L0,0.096000001 Z" clip-rule="evenodd"></path></clipPath><clipPath id="clip3"><path d="M-1,-1 L613,-1 L613,55.979999542 L-1,55.979999542 Z" clip-rule="evenodd"></path></clipPath><clipPath id="clip4"><path d="M-1,-1 L118,-1 L118,51.5 L-1,51.5 Z" clip-rule="evenodd"></path></clipPath><clipPath id="clip5"><path d="M-1,-1 L436,-1 L436,51.5 L-1,51.5 Z" clip-rule="evenodd"></path></clipPath><clipPath id="clip6"><path d="M-1,-1 L118,-1 L118,67.361999512 L-1,67.361999512 Z" clip-rule="evenodd"></path></clipPath><clipPath id="clip7"><path d="M-1,-1 L145.800003052,-1 L145.800003052,58.861999512 L-1,58.861999512 Z" clip-rule="evenodd"></path></clipPath><clipPath id="clip8"><path d="M-1,-1 L145.850006104,-1 L145.850006104,58.861999512 L-1,58.861999512 Z" clip-rule="evenodd"></path></clipPath><clipPath id="clip9"><path d="M-1,-1 L145.850006104,-1 L145.850006104,58.861999512 L-1,58.861999512 Z" clip-rule="evenodd"></path></clipPath><style type="text/css">@import url('https://fonts.googleapis.com/css2?family=Open+Sans:wght@400;700');@import url('https://fonts.googleapis.com/css2?family=Montserrat:wght@400;600');svg{background:white}</style></defs><g transform="scale(1.33333)"><g><path d="M0,0 L600,0 L600,450 L0,450 Z" fill="#ffffff" fill-rule="evenodd"></path><g transform="matrix(1,0,0,1,600,0)"><path d="M0,0 L600,0 L600,450 L0,450 Z" fill="#ffffff" fill-rule="evenodd"></path></g><g transform="matrix(1,0,0,1,0,450)"><path d="M0,0 L600,0 L600,450 L0,450 Z" fill="#ffffff" fill-rule="evenodd"></path></g><g transform="matrix(1,0,0,1,600,450)"><path d="M0,0 L600,0 L600,450 L0,450 Z" fill="#ffffff" fill-rule="evenodd"></path></g><g transform="matrix(1,0,0,1,0,0)" clip-path="url(#clip1)"><text><tspan x="0" y="0.077" font-family="Times New Roman" font-weight="normal" font-style="normal" font-size="1" fill="#ffffff">.</tspan></text></g><g transform="matrix(1,0,0,1,0,791.903991699)" clip-path="url(#clip2)"><text><tspan x="0" y="0.077" font-family="Times New Roman" font-weight="normal" font-style="normal" font-size="1" fill="#ffffff">.</tspan></text></g><g transform="matrix(1,0,0,1,0,0.096000001)"><path d="M0,0 L612,0 L612,54.979999542 L0,54.979999542 Z" fill="#cee1ec" fill-rule="evenodd"></path><g transform="matrix(1,0,0,1,0,0)" clip-path="url(#clip3)"><g transform="matrix(1,0,0,1,30,30)"><text><tspan x="92.34400177" y="10.687999725" font-family="Open Sans" font-weight="normal" font-style="normal" font-size="10" fill="#000000">San Francisco, CA 94105   </tspan><tspan x="212.600997925" y="10.687999725" font-family="Open Sans" font-weight="bold" font-style="normal" font-size="10" fill="#0c6ba1">|   </tspan><tspan x="225.902999878" y="10.687999725" font-family="Open Sans" font-weight="normal" font-style="normal" font-size="10" fill="#000000"> (555)432-1000   </tspan><tspan x="302.608001709" y="10.687999725" font-family="Open Sans" font-weight="bold" font-style="normal" font-size="10" fill="#0c6ba1">|   </tspan><tspan x="315.910003662" y="10.687999725" font-family="Open Sans" font-weight="normal" font-style="normal" font-size="10" fill="#000000"> resumesample@example.com </tspan></text></g></g><path d="M0,55.479999542 L612,55.479999542 " stroke-width="1" stroke-miterlimit="10" stroke="#0c6ba1" fill="none" fill-rule="evenodd"></path><g transform="matrix(1,0,0,1,0,55.979999542)"><text><tspan x="0" y="0" font-family="Times New Roman" font-weight="normal" font-style="normal" font-size="1" fill="#ffffff">.</tspan></text></g></g><g transform="matrix(1,0,0,1,30,56.076000214)"><g transform="matrix(1,0,0,1,117,0)"><text><tspan x="0" y="48.97600174" font-family="Montserrat" font-weight="normal" font-style="normal" font-size="24" fill="#000000">JESSICA CLAIRE</tspan></text></g><g transform="matrix(1,0,0,1,0.600000024,85)"><path d="M0,-1 L110,-1 L110,4 L0,4 Z" fill="#cee1ec" fill-rule="evenodd"></path><path d="M0,4.5 L547,4.5 " stroke-width="1" stroke-miterlimit="10" stroke="#0c6ba1" fill="none" fill-rule="evenodd"></path></g><g transform="matrix(1,0,0,1,0,90)"><g transform="matrix(1,0,0,1,0,0)" clip-path="url(#clip4)"><g transform="matrix(1,0,0,1,0.25,8.25)"><text><tspan x="0" y="9.680000305" font-family="Montserrat" font-weight="bold" font-style="normal" font-size="10" fill="#000000">PROFESSIONAL </tspan><tspan x="0" y="21.869998932" font-family="Montserrat" font-weight="bold" font-style="normal" font-size="10" fill="#000000">SUMMARY</tspan></text></g></g><g transform="matrix(1,0,0,1,117,0)" clip-path="url(#clip5)"><g transform="matrix(1,0,0,1,0.25,8.25)"><text><tspan x="0" y="11.069999695" font-family="Open Sans" font-weight="normal" font-style="normal" font-size="10" fill="#020303">Highly motivated Sales Associate with extensive customer service and sales experience. </tspan><tspan x="0" y="25.069999695" font-family="Open Sans" font-weight="normal" font-style="normal" font-size="10" fill="#020303">Outgoing sales professional with track record of driving increased sales, improving buying </tspan><tspan x="0" y="39.069999695" font-family="Open Sans" font-weight="normal" font-style="normal" font-size="10" fill="#020303">experience and elevating company profile with target market.</tspan></text></g></g></g><g transform="matrix(1,0,0,1,0,140.5)"><text><tspan x="0" y="26.721000671" font-family="Open Sans" font-weight="normal" font-style="normal" font-size="25" fill="#020303"> </tspan></text></g><g transform="matrix(1,0,0,1,0.600000024,174.544998169)"><path d="M0,0 L110,0 L110,4 L0,4 Z" fill="#cee1ec" fill-rule="evenodd"></path><path d="M0,4.5 L547,4.5 " stroke-width="1" stroke-miterlimit="10" stroke="#0c6ba1" fill="none" fill-rule="evenodd"></path></g><g transform="matrix(1,0,0,1,0,179.544998169)"><g transform="matrix(1,0,0,1,0,0)" clip-path="url(#clip6)"><g transform="matrix(1,0,0,1,0.25,8.25)"><text><tspan x="0" y="9.680000305" font-family="Montserrat" font-weight="bold" font-style="normal" font-size="10" fill="#000000">SKILLS</tspan></text></g></g></g><g transform="matrix(1,0,0,1,117.25,187.794998169)"><g transform="matrix(1,0,0,1,0,0)" clip-path="url(#clip7)"><g transform="matrix(1,0,0,1,1.649999976,0.25)"><text><tspan x="-0.5" y="10.319999695" font-family="Times New Roman" font-weight="normal" font-style="normal" font-size="7.5" fill="#020303">●</tspan><tspan x="9.600000381" y="11.069999695" font-family="Open Sans" font-weight="normal" font-style="normal" font-size="10" fill="#020303">Guest services</tspan></text></g><g transform="matrix(1,0,0,1,1.649999976,14.25)"><text><tspan x="-0.5" y="10.319999695" font-family="Times New Roman" font-weight="normal" font-style="normal" font-size="7.5" fill="#020303">●</tspan><tspan x="9.600000381" y="11.069999695" font-family="Open Sans" font-weight="normal" font-style="normal" font-size="10" fill="#020303">Inventory control </tspan><tspan x="9.600000381" y="25.069999695" font-family="Open Sans" font-weight="normal" font-style="normal" font-size="10" fill="#020303">procedures</tspan></text></g><g transform="matrix(1,0,0,1,1.649999976,42.25)"><text><tspan x="-0.5" y="10.319999695" font-family="Times New Roman" font-weight="normal" font-style="normal" font-size="7.5" fill="#020303">●</tspan><tspan x="9.600000381" y="11.069999695" font-family="Open Sans" font-weight="normal" font-style="normal" font-size="10" fill="#020303">Merchandising expertise</tspan></text></g></g><g transform="matrix(1,0,0,1,144.800003052,0)" clip-path="url(#clip8)"><g transform="matrix(1,0,0,1,1.649999976,0.25)"><text><tspan x="-0.5" y="10.319999695" font-family="Times New Roman" font-weight="normal" font-style="normal" font-size="7.5" fill="#020303">●</tspan><tspan x="9.600000381" y="11.069999695" font-family="Open Sans" font-weight="normal" font-style="normal" font-size="10" fill="#020303">Loss prevention</tspan></text></g><g transform="matrix(1,0,0,1,1.649999976,14.25)"><text><tspan x="-0.5" y="10.319999695" font-family="Times New Roman" font-weight="normal" font-style="normal" font-size="7.5" fill="#020303">●</tspan><tspan x="9.600000381" y="11.069999695" font-family="Open Sans" font-weight="normal" font-style="normal" font-size="10" fill="#020303">Cash register operations</tspan></text></g><g transform="matrix(1,0,0,1,1.649999976,28.25)"><text><tspan x="-0.5" y="10.319999695" font-family="Times New Roman" font-weight="normal" font-style="normal" font-size="7.5" fill="#020303">●</tspan><tspan x="9.600000381" y="11.069999695" font-family="Open Sans" font-weight="normal" font-style="normal" font-size="10" fill="#020303">Product promotions</tspan></text></g></g><g transform="matrix(1,0,0,1,289.649993896,0)" clip-path="url(#clip9)"><g transform="matrix(1,0,0,1,1.649999976,0.25)"><text><tspan x="-0.5" y="10.319999695" font-family="Times New Roman" font-weight="normal" font-style="normal" font-size="7.5" fill="#020303">●</tspan><tspan x="9.600000381" y="11.069999695" font-family="Open Sans" font-weight="normal" font-style="normal" font-size="10" fill="#020303">Social perceptiveness</tspan></text></g><g transform="matrix(1,0,0,1,1.649999976,14.25)"><text><tspan x="-0.5" y="10.319999695" font-family="Times New Roman" font-weight="normal" font-style="normal" font-size="7.5" fill="#020303">●</tspan><tspan x="9.600000381" y="11.069999695" font-family="Open Sans" font-weight="normal" font-style="normal" font-size="10" fill="#020303">Contract preparation</tspan></text></g><g transform="matrix(1,0,0,1,1.649999976,28.25)"><text><tspan x="-0.5" y="10.319999695" font-family="Times New Roman" font-weight="normal" font-style="normal" font-size="7.5" fill="#020303">●</tspan><tspan x="9.600000381" y="11.069999695" font-family="Open Sans" font-weight="normal" font-style="normal" font-size="10" fill="#020303">Staff Management</tspan></text></g></g></g><g transform="matrix(1,0,0,1,0,245.906997681)"><text><tspan x="0" y="26.721000671" font-family="Open Sans" font-weight="normal" font-style="normal" font-size="25" fill="#020303"> </tspan></text></g><g transform="matrix(1,0,0,1,0.600000024,279.95199585)"><path d="M0,0 L110,0 L110,4 L0,4 Z" fill="#cee1ec" fill-rule="evenodd"></path><path d="M0,4.5 L547,4.5 " stroke-width="1" stroke-miterlimit="10" stroke="#0c6ba1" fill="none" fill-rule="evenodd"></path></g><g transform="matrix(1,0,0,1,0,284.95199585)"><g transform="matrix(1,0,0,1,0,0)" clip-path="url(#clip10)"><g transform="matrix(1,0,0,1,0.25,8.25)"><text><tspan x="0" y="9.680000305" font-family="Montserrat" font-weight="bold" font-style="normal" font-size="10" fill="#000000">WORK HISTORY</tspan></text></g></g><g transform="matrix(1,0,0,1,117,0)" clip-path="url(#clip11)"><g transform="matrix(1,0,0,1,0.25,8.25)"><text><tspan x="0" y="11.069999695" font-family="Open Sans" font-weight="bold" font-style="normal" font-size="10" fill="#020303">SENIOR SALES ASSOCIATE</tspan><tspan x="125.318000793" y="11.069999695" font-family="Open Sans" font-weight="normal" font-style="normal" font-size="10" fill="#020303"> 03/2015 to Current </tspan></text></g><g transform="matrix(1,0,0,1,0.25,22.25)"><text><tspan x="0" y="11.069999695" font-family="Open Sans" font-weight="bold" font-style="normal" font-size="10" fill="#020303">Bed Bath &amp; Beyond, Inc.</tspan><tspan x="118.70300293" y="11.069999695" font-family="Open Sans" font-weight="normal" font-style="normal" font-size="10" fill="#020303">, San Francisco, CA</tspan></text></g><g transform="matrix(1,0,0,1,1.649999976,36.25)"><text><tspan x="-0.5" y="15.319999695" font-family="Times New Roman" font-weight="normal" font-style="normal" font-size="7.5" fill="#020303">●</tspan><tspan x="9.600000381" y="16.069999695" font-family="Open Sans" font-weight="normal" font-style="normal" font-size="10" fill="#020303">Applied security and loss prevention training toward recognizing risks and reducing store </tspan><tspan x="9.600000381" y="30.069999695" font-family="Open Sans" font-weight="normal" font-style="normal" font-size="10" fill="#020303">theft</tspan></text></g><g transform="matrix(1,0,0,1,1.649999976,69.25)"><text><tspan x="-0.5" y="10.319999695" font-family="Times New Roman" font-weight="normal" font-style="normal" font-size="7.5" fill="#020303">●</tspan><tspan x="9.600000381" y="11.069999695" font-family="Open Sans" font-weight="normal" font-style="normal" font-size="10" fill="#020303">Trained and developed sales team associates in products, selling techniques and </tspan><tspan x="9.600000381" y="25.069999695" font-family="Open Sans" font-weight="normal" font-style="normal" font-size="10" fill="#020303">procedures</tspan></text></g><g transform="matrix(1,0,0,1,1.649999976,97.25)"><text><tspan x="-0.5" y="10.319999695" font-family="Times New Roman" font-weight="normal" font-style="normal" font-size="7.5" fill="#020303">●</tspan><tspan x="9.600000381" y="11.069999695" font-family="Open Sans" font-weight="normal" font-style="normal" font-size="10" fill="#020303">Maintained organized, presentable merchandise to drive continuous sales</tspan></text></g><g transform="matrix(1,0,0,1,1.649999976,111.25)"><text><tspan x="-0.5" y="10.319999695" font-family="Times New Roman" font-weight="normal" font-style="normal" font-size="7.5" fill="#020303">●</tspan><tspan x="9.600000381" y="11.069999695" font-family="Open Sans" font-weight="normal" font-style="normal" font-size="10" fill="#020303">Implemented up-selling strategies for recommending accessories and complementary </tspan><tspan x="9.600000381" y="25.069999695" font-family="Open Sans" font-weight="normal" font-style="normal" font-size="10" fill="#020303">purchases</tspan></text></g><g transform="matrix(1,0,0,1,0.25,139.25)"><text><tspan x="0" y="26.069999695" font-family="Open Sans" font-weight="bold" font-style="normal" font-size="10" fill="#020303">SALES ASSOCIATE</tspan><tspan x="85.611000061" y="26.069999695" font-family="Open Sans" font-weight="normal" font-style="normal" font-size="10" fill="#020303"> 06/2013 to 03/2015 </tspan></text></g><g transform="matrix(1,0,0,1,0.25,168.25)"><text><tspan x="0" y="11.069999695" font-family="Open Sans" font-weight="bold" font-style="normal" font-size="10" fill="#020303">Target</tspan><tspan x="32.270999908" y="11.069999695" font-family="Open Sans" font-weight="normal" font-style="normal" font-size="10" fill="#020303">, San Francisco, CA</tspan></text></g><g transform="matrix(1,0,0,1,1.649999976,182.25)"><text><tspan x="-0.5" y="15.319999695" font-family="Times New Roman" font-weight="normal" font-style="normal" font-size="7.5" fill="#020303">●</tspan><tspan x="9.600000381" y="16.069999695" font-family="Open Sans" font-weight="normal" font-style="normal" font-size="10" fill="#020303">Maintained organized, presentable merchandise to drive continuous sales</tspan></text></g><g transform="matrix(1,0,0,1,1.649999976,201.25)"><text><tspan x="-0.5" y="10.319999695" font-family="Times New Roman" font-weight="normal" font-style="normal" font-size="7.5" fill="#020303">●</tspan><tspan x="9.600000381" y="11.069999695" font-family="Open Sans" font-weight="normal" font-style="normal" font-size="10" fill="#020303">Organized racks and shelves to maintain store visual appeal, engage customers and </tspan><tspan x="9.600000381" y="25.069999695" font-family="Open Sans" font-weight="normal" font-style="normal" font-size="10" fill="#020303">promote merchandise</tspan></text></g><g transform="matrix(1,0,0,1,1.649999976,229.25)"><text><tspan x="-0.5" y="10.319999695" font-family="Times New Roman" font-weight="normal" font-style="normal" font-size="7.5" fill="#020303">●</tspan><tspan x="9.600000381" y="11.069999695" font-family="Open Sans" font-weight="normal" font-style="normal" font-size="10" fill="#020303">Evaluated inventory and delivery needs, optimizing strategies to meet customer demands</tspan></text></g><g transform="matrix(1,0,0,1,1.649999976,243.25)"><text><tspan x="-0.5" y="10.319999695" font-family="Times New Roman" font-weight="normal" font-style="normal" font-size="7.5" fill="#020303">●</tspan><tspan x="9.600000381" y="11.069999695" font-family="Open Sans" font-weight="normal" font-style="normal" font-size="10" fill="#020303">Analyzed and processed returns, assisting customers with finding alternative </tspan><tspan x="9.600000381" y="25.069999695" font-family="Open Sans" font-weight="normal" font-style="normal" font-size="10" fill="#020303">merchandise to meet needs</tspan></text></g></g></g><g transform="matrix(1,0,0,1,0,556.452026367)"><text><tspan x="0" y="26.721000671" font-family="Open Sans" font-weight="normal" font-style="normal" font-size="25" fill="#020303"> </tspan></text></g><g transform="matrix(1,0,0,1,0.600000024,590.497009277)"><path d="M0,0 L110,0 L110,4 L0,4 Z" fill="#cee1ec" fill-rule="evenodd"></path><path d="M0,4.5 L547,4.5 " stroke-width="1" stroke-miterlimit="10" stroke="#0c6ba1" fill="none" fill-rule="evenodd"></path></g><g transform="matrix(1,0,0,1,0,595.497009277)"><g transform="matrix(1,0,0,1,0,0)" clip-path="url(#clip12)"><g transform="matrix(1,0,0,1,0.25,8.25)"><text><tspan x="0" y="9.680000305" font-family="Montserrat" font-weight="bold" font-style="normal" font-size="10" fill="#000000">EDUCATION</tspan></text></g></g><g transform="matrix(1,0,0,1,117,0)" clip-path="url(#clip13)"><g transform="matrix(1,0,0,1,0.25,8.25)"><text><tspan x="0" y="11.069999695" font-family="Open Sans" font-weight="bold" font-style="normal" font-size="10" fill="#020303">San Francisco State University</tspan><tspan x="150.56300354" y="11.069999695" font-family="Open Sans" font-weight="normal" font-style="normal" font-size="10" fill="#020303">, San Francisco, CA </tspan></text></g><g transform="matrix(1,0,0,1,0.25,22.25)"><text><tspan x="0" y="11.069999695" font-family="Open Sans" font-weight="bold" font-style="normal" font-size="10" fill="#020303">Bachelor of Arts</tspan><tspan x="80.176002502" y="11.069999695" font-family="Open Sans" font-weight="normal" font-style="normal" font-size="10" fill="#020303">, Business Administration, 2013</tspan></text></g></g></g><g transform="matrix(1,0,0,1,0,631.997009277)"><text><tspan x="0" y="26.721000671" font-family="Open Sans" font-weight="normal" font-style="normal" font-size="25" fill="#020303"> </tspan></text></g></g></g></g></svg>